<?xml version="1.0" encoding="UTF-8"?><svg id="Layer_1" xmlns="http://www.w3.org/2000/svg" viewBox="0 0 500 345"><defs><style>.west-end-designs-1{fill:#E45656;stroke-width:0px;}</style></defs><path class="west-end-designs-1" d="M0,344.83c.46.05.94.11,1.43.17h267.61c3.47-.05,6.94-.09,10.4-.1,5.96-.02,11.92.04,17.87.1h56.76c6.86-.06,13.71-.12,20.57-.18,9.61-.08,115.75-.22,125.36-.28v-31.74h-121.45c-15.01.12-30.02.3-45.03.36-40.65.16-81.31.26-121.96.41-53.65.2-107.3.42-160.94.62-7.23.03-14.46,0-22.04,0,0-7.45-.02-14.02,0-20.6.22-64.81.47-129.62.64-194.43.05-20.31-.17-40.62-.19-60.94,0-8.54.08-8.68,8.36-8.72,25.62-.12,51.24-.25,76.86-.15,27.64.11,55.28.63,82.92.68,39.15.07,78.31-.16,117.46-.2,26.54-.03,53.07.06,79.61.09,6.34,0,99.67,0,105.74,0V0H0v344.83Z"/><path class="west-end-designs-1" d="M424.81,54.73c-26.91.09-53.83.3-80.74.14-3.64-.02-5.05,1.05-6.31,4.18-9.83,24.45-19.76,48.85-29.79,73.22-16.85,40.96-33.77,81.88-50.7,122.8-.88,2.14-2.14,4.12-3.78,7.23-1.56-4.3-2.82-7.45-3.87-10.68-13.84-42.84-27.64-85.68-41.46-128.53-1.99-6.18-2-5.94-8.27-5.97-3.78-.02-4.49,2.54-5.5,5.05-17.65,43.59-35.27,87.19-52.9,130.79-.72,1.78-1.44,3.55-2.16,5.33-.38.02-.76.04-1.14.07-1.13-2.61-2.5-5.14-3.36-7.83-5.23-16.39-10.43-32.79-15.48-49.23-11.4-37.08-22.71-74.2-34.06-111.3-3.11-10.15-6.16-20.32-9.42-30.41-.48-1.48-1.97-3.71-3.06-3.75-8.38-.31-16.77-.17-25.57-.17.46,1.87.77,3.46,1.23,5,6.42,21.57,12.78,43.16,19.31,64.7,15.99,52.71,32.08,105.39,48.12,158.08,1.62,5.3,1.94,5.74,7.51,5.84,9.52.17,19.04.05,28.57.16,3.57.04,5.65-1.4,6.99-4.83,8.02-20.63,16.18-41.21,24.36-61.77,4.91-12.33,9.95-24.62,14.93-36.92,2.68,4.58,4.39,9.15,5.9,13.78,9.13,28.01,18.26,56.02,27.26,84.07.89,2.78,2.18,4.11,5.11,4.8,11.39,2.69,22.87.85,34.3.92,1.45,0,3.6-1.86,4.27-3.37,4.09-9.17,7.89-18.47,11.72-27.75,8.79-21.3,17.55-42.61,26.32-63.92,6.06-14.71,12.11-29.43,18.2-44.13,7.91-19.09,15.93-38.13,23.73-57.26,1.63-4,3.64-5.9,8.39-5.79,12.62.29,25.26-.17,37.89-.23,8.96-.05,89.71.04,98.66.2v-32.48c-3.42,0-72.84,0-75.19,0Z"/><path class="west-end-designs-1" d="M144.48,188.12c.71-1.42,1.52-2.79,2.1-4.26,5.39-13.61,10.69-27.26,16.12-40.85,6.65-16.65,13.5-33.23,20.04-49.93,1.51-3.84,3.71-5.24,7.78-5.14,8.78.22,17.59.18,26.37-.13,3.2-.11,4.61.98,5.54,3.85,1.92,5.91,4.19,11.71,6.15,17.61,9.13,27.43,18.2,54.88,27.32,82.32.61,1.83,1.41,3.6,2.37,6.04.99-1.21,1.57-1.66,1.81-2.25,4.64-11.15,9.36-22.26,13.75-33.51.7-1.79.29-4.33-.36-6.27-8.04-24.13-16.21-48.21-24.35-72.31-2.63-7.8-5.29-15.6-7.83-23.43-.82-2.53-1.87-3.77-4.99-3.75-21.24.16-42.48.09-63.72-.08-3.21-.02-4.9.92-6.12,4-4.93,12.42-10.14,24.72-15.25,37.07-1.7,4.11-3.39,8.22-5.08,12.33l-1.16-.08c-5.97-18-11.94-36-17.97-54.2h-28.26c14.87,44.61,29.62,88.85,44.36,133.09.46-.04.92-.08,1.37-.12Z"/><path class="west-end-designs-1" d="M290.64,122.35c4.13-4.76,26.49-61.26,26.4-66.92-9.7,0-19-.12-28.28.15-1.28.04-3.04,1.79-3.64,3.17-2.74,6.18-5.02,12.56-7.75,18.75-1.13,2.57-1.04,4.8-.15,7.34,4.03,11.56,7.94,23.16,11.93,34.74.33.95.96,1.79,1.5,2.79Z"/></svg>