<svg class="standard" viewBox="0 0 146 146" xmlns="http://www.w3.org/2000/svg">
<path d="M77.2173 44.4165C77.2173 45.2549 77.2508 46.0934 77.2955 46.9319C99.7441 44.573 117.24 25.5901 117.24 2.5154C117.24 1.66576 117.207 0.827289 117.162 0C94.7133 2.35889 77.2173 21.3418 77.2173 44.4165Z" fill="#EEA820"></path>
<path d="M67.9272 44.4165C67.9272 45.2549 67.8936 46.0934 67.8489 46.9319C45.4115 44.573 27.9155 25.5901 27.9155 2.5154C27.9155 1.67694 27.9491 0.838468 27.9938 0C50.4423 2.35889 67.9383 21.3418 67.9383 44.4165H67.9272Z" fill="#EEA820"></path>
<path d="M67.9269 100.739C67.9269 99.9004 67.8933 99.0619 67.8486 98.2234C45.4001 100.582 27.9041 119.565 27.9041 142.64C27.9041 143.478 27.9376 144.317 27.9823 145.155C50.4309 142.796 67.9269 123.814 67.9269 100.739Z" fill="#EEA820"></path>
<path d="M77.2173 100.739C77.2173 99.9004 77.2508 99.0619 77.2955 98.2234C99.7441 100.582 117.24 119.565 117.24 142.64C117.24 143.478 117.207 144.317 117.162 145.155C94.7133 142.796 77.2173 123.814 77.2173 100.739Z" fill="#EEA820"></path>
<path d="M100.739 77.2175C99.9006 77.2175 99.0621 77.251 98.2236 77.2957C100.583 99.7443 119.565 117.24 142.64 117.24C143.478 117.24 144.317 117.207 145.155 117.162C142.797 94.7135 123.814 77.2175 100.739 77.2175Z" fill="#EEA820"></path>
<path d="M100.739 67.9272C99.9006 67.9272 99.0621 67.8936 98.2236 67.8489C100.583 45.4003 119.565 27.9043 142.64 27.9043C143.478 27.9043 144.317 27.9378 145.155 27.9826C142.797 50.4311 123.814 67.9272 100.739 67.9272Z" fill="#EEA820"></path>
<path d="M68.6425 58.268C64.2266 57.955 59.9448 57.1501 55.8643 55.8644C57.5188 61.1412 58.402 66.7534 58.402 72.5667C58.402 78.3801 57.5077 83.9923 55.8643 89.269C61.141 87.6144 66.7531 86.7313 72.5665 86.7313C78.3799 86.7313 83.992 87.6256 89.2688 89.269C87.6142 83.9923 86.731 78.3801 86.731 72.5667C86.731 66.7534 87.6254 61.1412 89.2688 55.8644C85.8143 56.9489 82.2033 57.6979 78.4917 58.0892C75.2161 58.5028 71.9181 58.5587 68.6313 58.268H68.6425Z" fill="#EEA820"></path>
<path d="M44.4164 67.9274C45.2548 67.9274 46.0933 67.8939 46.9318 67.8492C44.5729 45.4118 25.59 27.9157 2.5154 27.9157C1.66575 27.9157 0.827287 27.9381 0 27.9828C2.35889 50.4314 21.3418 67.9274 44.4164 67.9274Z" fill="#EEA820"></path>
<path d="M44.4164 77.2175C45.2548 77.2175 46.0933 77.251 46.9318 77.2957C44.5729 99.7443 25.59 117.24 2.5154 117.24C1.67693 117.24 0.838467 117.207 0 117.162C2.35889 94.7135 21.3418 77.2175 44.4164 77.2175Z" fill="#EEA820"></path>
</svg>