<?xml version="1.0" encoding="UTF-8"?><svg id="Layer_1" xmlns="http://www.w3.org/2000/svg" viewBox="0 0 255.58 287.25"><defs><style>.cls-1{fill:currentColor;stroke-width:0px;}</style></defs><path class="cls-1" d="M255.57,84.45c0-4.83-1.04-9.1-3.12-12.76-2.05-3.6-5.12-6.62-9.25-9.01-34.02-19.62-68.08-39.18-102.1-58.82-9.17-5.29-18.06-5.1-27.16.27-13.54,7.99-81.35,46.83-101.55,58.54C4.06,67.49.02,74.86.01,84.44c-.01,39.46,0,78.91-.01,118.36,0,4.72.99,8.91,2.99,12.52,2.05,3.71,5.17,6.81,9.39,9.25,20.21,11.7,88.02,50.55,101.56,58.54,9.11,5.37,18,5.57,27.17.27,34.02-19.64,68.08-39.2,102.1-58.82,4.22-2.44,7.33-5.54,9.39-9.25,1.99-3.61,2.99-7.79,2.99-12.52,0,0,0-78.89-.01-118.34ZM129.52,238.62h-1.06c-35.25,0-66.03-19.2-82.42-47.72-8-13.92-12.58-30.06-12.58-47.28,0-52.47,42.53-95,95-95,35.03,0,65.63,18.97,82.1,47.18h0s.16.27.16.27c-.05-.09-.11-.18-.16-.27l-41.35,23.81c-8.15-13.79-23.08-23.1-40.21-23.29h-.54c-26.13,0-47.31,21.18-47.31,47.3,0,8.54,2.28,16.55,6.24,23.47,8.15,14.24,23.48,23.84,41.07,23.84s33.11-9.72,41.22-24.11l-.2.35,41.29,23.92c-16.25,28.13-46.52,47.16-81.25,47.54ZM235.58,136.5h-13.47v13.47h13.47v6.74h-13.47v13.47h-6.74v-13.47h-13.47v13.47h-6.74v-13.47h-13.47v-6.74h13.47v-13.47h-13.47v-6.74h13.47v-13.47h6.74v13.47h13.47v-13.47h6.74v13.47h13.47v6.74Z"/><rect class="cls-1" x="201.89" y="136.5" width="13.47" height="13.47"/></svg>