<?xml version="1.0" encoding="UTF-8"?><svg id="Layer_1" xmlns="http://www.w3.org/2000/svg" viewBox="0 0 305.5 450"><defs><style>.rndm-cls-1{fill:currentColor;stroke-width:0px;}</style></defs><path class="rndm-cls-1" d="M227.78,160.76c2.85-4.89,5.31-9.19,7.89-13.43.56-.93,1.44-1.84,2.4-2.32,21.62-10.98,43.27-21.9,64.92-32.81.56-.28,1.24-.34,2.41-.64,0,1.95,0,3.56,0,5.18.02,46.36.02,92.72.11,139.08,0,2.86-.38,4.88-3.24,6.52-48.77,27.94-97.48,55.99-146.15,84.1-2.36,1.36-3.91,1.26-6.27-.11-46.91-27.14-93.81-54.29-140.94-81.03C2.45,261.64-.06,257.86,0,250.26c.37-44.68.11-89.37.07-134.05,0-1.62,0-3.23,0-5.36,1.37.42,2.16.54,2.84.89,21.03,10.67,42.11,21.25,63,32.17,2.65,1.38,4.53,4.42,6.46,6.94,2.21,2.89,4.07,6.05,6.42,9.61-4.61,8.1-9.37,16.71-14.48,25.12-.59.98-3.08,1.19-4.67,1.12-14.62-.62-25.29,8.89-25.55,22.92-.29,16.03,14.68,27.42,30.08,22.87,1.12-.33,2.2-.75,3.79-1.3,7.17,9.74,14.45,19.49,21.49,29.42.57.8-.11,3.07-.9,4.16-8.21,11.28-6.33,25.16,4.66,33.3,10.46,7.75,25.81,5.37,33.42-5.41,4.91-6.95,5.53-14.59,2.11-22.38-1.26-2.88-3.06-5.52-4.65-8.35,5.96-9.43,11.98-18.86,17.88-28.38,1.41-2.27,2.73-2.87,5.62-2.43,4.63.69,9.45.19,15.42.19,5.6,8.6,12.26,18.6,18.55,28.83.63,1.02-.59,3.61-1.55,5.09-6.39,9.87-5.91,21.85,1.36,29.74,7.87,8.53,21.35,9.93,31.13,3.23,9.49-6.5,12.73-20.27,6.61-30.93-2.24-3.91-1.76-6.4.63-9.74,5.46-7.61,10.58-15.46,15.78-23.26,1.28-1.92,2.16-3.17,5.1-2.13,10.11,3.55,20.45.57,26.76-7.17,6.35-7.78,6.95-18.67,1.54-27.72-4.69-7.84-14.4-11.79-24.82-10.12-.47.08-.97,0-1.74,0-4.99-9.02-9.99-18.05-14.6-26.36Z"/><path class="rndm-cls-1" d="M235.78,134.43c-2.59-3.64-4.41-7.13-7.07-9.77-7.94-7.89-20.23-8.84-29.55-2.7-8.89,5.85-12.87,18.37-8.63,28.96,1.47,3.67,1.1,5.87-1.53,8.76-7.85,8.65-15.33,17.64-22.93,26.46-2.79-1.16-5.06-2.11-7.56-3.16v-93.86c1.23-.48,2.48-.92,3.69-1.44,10.41-4.39,15.97-14.17,14.48-25.46-1.35-10.26-10.21-18.83-20.87-20.16-9.84-1.23-20.33,5.05-24.13,14.46-4.28,10.58-1.86,22.24,8.13,27.78,7.71,4.28,8.11,9.59,8,16.84-.36,24.93-.43,49.87-.17,74.8.06,5.53-1.04,8.93-7.69,9.55-8.44-9.61-17.25-19.62-25.97-29.54,7.16-15.74,3.51-29.11-9.48-35.44-12.77-6.23-25.03-.92-33.29,14.8-6.49-3.23-13.04-6.43-19.52-9.73-15.49-7.9-30.97-15.84-46.44-23.78-2.43-1.25-5.14-1.8-5.24-5.75-.1-4.12,1.45-6.34,4.82-8.32,16.3-9.56,32.5-19.27,48.7-29C85.22,39.7,116.91,20.68,148.52,1.54c3.06-1.85,5.35-2.16,8.59-.2,47.56,28.66,95.22,57.15,142.81,85.76,2.38,1.43,5.38,2.19,5.45,6.31.08,4.57-1.22,7.09-5.52,9.18-20.46,9.94-40.73,20.27-61.07,30.46-1.03.51-2.08.97-3,1.39Z"/><path class="rndm-cls-1" d="M305.4,302.06c0,20.27.08,39.67-.15,59.06-.02,1.62-1.8,3.84-3.36,4.74-30.99,17.94-62.04,35.76-93.12,53.53-17.58,10.05-35.2,20.01-52.89,29.85-1.43.79-3.99,1.08-5.3.33-43.87-25.06-87.66-50.27-131.46-75.45-5.22-3-10.56-5.82-15.65-9.02-1.44-.9-3.12-2.86-3.14-4.36-.18-19.25-.08-38.5-.03-57.75,0-.26.3-.53.67-1.14,6.77,3.82,13.57,7.6,20.32,11.48,42.79,24.59,85.6,49.16,128.31,73.88,2.88,1.66,4.81,1.62,7.64-.02,47.36-27.37,94.78-54.62,142.2-81.89,1.71-.98,3.47-1.88,5.97-3.23Z"/><path class="rndm-cls-1" d="M106.7,163.64c7.79,8.56,16.16,17.65,24.36,26.9,1.01,1.13,1.89,3.31,1.5,4.6-4.53,15.21-4.52,16.08,2.9,30.17-6.55,10.24-13.21,20.64-19.1,29.84-6.18.46-11.18.98-16.2,1.11-1.15.03-2.73-.97-3.45-1.97-6.42-8.96-12.78-17.98-18.92-27.13-.73-1.09-.68-3.43,0-4.64,5.12-9.16,4.52-19.54-2.33-27.58-2.08-2.44-2.42-4.12-.77-6.91,3.85-6.45,7.39-13.09,10.92-19.73,1.21-2.28,2.47-3.25,5.38-3.21,4.91.07,9.84-.85,15.71-1.46Z"/><path class="rndm-cls-1" d="M229.79,224.73c-6.88,10.03-13.62,19.98-20.57,29.79-.69.97-2.63,1.4-4.01,1.44-2.64.08-5.53-1.07-7.9-.34-5.36,1.64-7.43-.9-9.87-5.11-5.09-8.78-10.91-17.14-16.55-25.85,7.38-8.83,8.14-18.39,3.66-28.68-.51-1.18-.23-3.38.58-4.35,7.47-8.99,15.07-17.88,22.85-26.61.92-1.04,3.16-1.41,4.72-1.28,5.04.41,10.05,1.21,16.38,2.02,4.27,7.67,9.37,16.81,14.61,26.21-9.24,9.91-11.76,20.76-3.88,32.77Z"/></svg>