<?xml version="1.0" encoding="UTF-8"?><svg id="Layer_1" xmlns="http://www.w3.org/2000/svg" viewBox="0 0 1055.52 424"><defs><style>.ultra-mobile-1{fill:#6b4191;}.ultra-mobile-1,.ultra-mobile-2{stroke-width:0px;}.ultra-mobile-2{fill:#e68726;}</style></defs><path class="ultra-mobile-2" d="M942.83,176.08c.04-5.92-2.77-10.81-8.01-13.5-1.76-.9-4.88-1.35-9.35-1.36-4.19,0-8.4,0-12.63,0-9.89-.01-19.82,0-29.77.01-4.07,0-6.98.42-8.71,1.23-7.27,3.41-8.6,9.47-8.4,17.62.15,6.08.15,12.21-.01,18.39-.14,5.47,1.07,9.69,5.27,13.34,2.39,2.09,5.73,3.14,10.04,3.15,10.43.03,20.91.03,31.44,0,4.25,0,8.53,0,12.84,0,4.33,0,7.37-.43,9.1-1.28,5.72-2.82,8.23-7.81,8.18-14.11-.06-7.65-.06-15.49.01-23.5Z"/><path class="ultra-mobile-1" d="M300.17,0c.9.65,1.35,1.31,1.35,2v294.76c0,1.38-1.11,2.49-2.49,2.49h-65.26c-1.52.01-2.76-1.23-2.76-2.75h0V20.99c0-1.18.79-2.22,1.92-2.53L298.77,0h1.4Z"/><path class="ultra-mobile-1" d="M423.02,80h45c1.24,0,2.25,1.01,2.25,2.25v48c0,1.38-1.12,2.5-2.5,2.5h-45.23c-.13,0-.24.11-.24.24-.06,26.94-.05,54.07.04,81.39.01,3.95.54,8.34,1.58,13.18,2.22,10.29,8.19,16.93,19.18,17.74,7.99.6,15.6.14,22.83-1.38,1.16-.25,2.29.49,2.54,1.65.03.15.05.3.05.45v49.93c0,1.13-.75,2.13-1.84,2.44-13,3.73-26.96,5.09-40.54,5.26-21.82.28-45.89-6.64-58.72-24.6-4.42-6.19-7.68-13.31-9.79-21.35-3.07-11.7-4.6-23.64-4.61-35.83-.02-29.71-.02-59.32,0-88.82,0-.17-.13-.3-.29-.3h-25.83c-1.45,0-2.63-1.17-2.63-2.62v-47.63c0-1.38,1.12-2.5,2.5-2.5h25.75c.33,0,.49-.17.49-.5v-37.15c-.01-1.33.88-2.49,2.17-2.85l64.42-17.73c1.12-.31,2.29.35,2.59,1.47.05.18.08.37.08.56v55.45c0,.5.25.75.75.75Z"/><path class="ultra-mobile-1" d="M565.03,104.14c6.04-8.04,15.34-14.36,24.1-18.98,23.87-12.59,49.64-19.86,77.31-21.79,6.22-.44,12.66-.3,19.31.43,18.01,1.97,36.51,7.36,51.57,16.59,23.78,14.57,38.33,37.9,42.69,65.59.79,4.99,1.16,11.04,1.12,18.13-.23,44.61-.19,88.82.12,132.65.01,1.37-1.09,2.49-2.46,2.5,0,0-.01,0-.02,0h-59.34c-1.3,0-2.36-1.04-2.39-2.35l-.34-16.98c-.01-.53-.2-.6-.57-.21-17.82,19.08-45.23,26.97-70.95,23.67-18.07-2.33-31.71-11.12-40.9-26.39-9.92-16.47-12.37-38.22-9.87-57.5,5.5-42.41,40.17-59.7,78.2-65.03,12.89-1.8,25.36-2.62,37.41-2.46.3,0,.54-.24.55-.54,0,0,0,0,0-.01-.05-21.18-19.9-32.08-38.17-35.09-44.98-7.42-99.02,16.11-107.3,65.98-.77,4.62-1.14,10.6-1.12,17.94.08,32.33.08,64.48,0,96.45,0,1.39-1.13,2.52-2.52,2.52h-65.42c-1.4,0-2.53-1.13-2.53-2.53,0,0,0,0,0-.01.03-62.16.02-124.58-.03-187.27,0-.79.26-1.55.26-2.34.03-7.69.04-15.89.05-24.6,0-1.66.83-2.49,2.49-2.49l65.74-.03c1.39,0,2.51,1.12,2.51,2.51h0s-.02,21.46-.02,21.46c0,.57.17.63.52.18ZM712.39,197.24c-21.49.07-61.84,3.85-58.83,35.01,1.13,11.73,7.43,18.64,18.9,20.73,18.57,3.39,39.74-10.89,40.18-30.62.19-8.51.21-16.78.07-24.81,0-.17-.14-.31-.32-.31h0Z"/><path class="ultra-mobile-1" d="M144.4,271.29c-17.46,24.1-44.7,34.38-73.96,32.37C16.82,299.97.12,254.86.05,208.45,0,167.8-.02,125.74.02,82.26c0-1.39,1.13-2.51,2.51-2.51h65.79c1.22,0,2.21.99,2.21,2.21-.01,39.3-.01,78.08,0,116.35,0,12.42,1.79,26.27,8.67,36.34,7.28,10.63,20.86,13.68,32.83,10.38,12.01-3.32,20.64-12.87,24.16-24.87.95-3.23,1.41-8.89,1.4-16.98-.07-40.49-.09-80.9-.05-121.25,0-1.2.98-2.18,2.18-2.18h66.05c1.38,0,2.5,1.12,2.5,2.5v214.25c0,1.38-1.12,2.5-2.5,2.5h-58.38c-1.32,0-2.39-1.07-2.39-2.38h0v-25.13c.01-.7-.19-.77-.6-.2Z"/><path class="ultra-mobile-1" d="M830.09,243.43c-25.67-47.72-13.67-105.47,28.38-139.23,30.36-24.37,72.75-30.28,108.71-16,63.53,25.23,89.34,101.89,53.22,160.24-31.15,50.31-95.68,66.59-146.76,38.65-.44-.25-.88-.26-1.33-.03l-79.22,40c-.52.27-.66.14-.42-.39l37.45-82.57c.1-.23.09-.45-.03-.67ZM853.98,163.25c.05,20.78.06,41.79.03,63.02-.01,8.8,5.82,15,14.75,15,34.91-.02,69.01-.02,102.28,0,1.73,0,3.2-.61,4.43-1.84,7.37-7.35,14.96-14.93,22.77-22.74,1.11-1.11,1.8-2.86,1.79-4.41-.05-15.06-.03-31.11.05-48.15.01-3.37-.4-6.06-1.25-8.08-2.18-5.18-7.17-8.34-12.89-8.33-37.86.04-77.34.05-118.45.03-8.75,0-13.53,7.58-13.51,15.5Z"/><path class="ultra-mobile-1" d="M1023.24,84.01l-5.24-.05c-.18,0-.33-.15-.33-.33,0,0,0,0,0-.01l.07-2.08c0-.18.15-.32.33-.32l13.77.05c.18,0,.32.14.33.32l.03,2.08c0,.18-.14.33-.32.34,0,0,0,0-.01,0h-5.24c-.18.01-.33.16-.33.34l-.04,17.32c0,.18-.15.33-.33.33h-2.11c-.18,0-.33-.16-.33-.34h0s.08-17.32.08-17.32c0-.18-.15-.33-.33-.33h0Z"/><path class="ultra-mobile-1" d="M1052.14,86.89l-5.82,13.98c-.67,1.61-1.33,1.61-2,0l-5.79-14.15c-.28-.68-.42-.65-.42.08l-.03,14.67c0,.34-.17.51-.52.5l-1.87-.03c-.28,0-.5-.23-.5-.5l.06-19.7c0-.29.25-.53.54-.53h3.19c.35.01.59.18.72.51l5.36,13.52c.06.15.24.23.39.17.08-.03.14-.09.16-.17l5.44-13.49c.12-.3.41-.49.73-.49h3.19c.37,0,.55.19.55.56-.05,6.65-.07,13.19-.05,19.64,0,.33-.16.51-.49.53-.63.03-1.28.03-1.95.02-.26,0-.47-.22-.47-.48l.06-14.55c0-.83-.16-.86-.48-.09Z"/><path class="ultra-mobile-1" d="M594.86,424h-7.06c-6.3-1.06-11.63-3.98-15.98-8.75-.47-.53-.69-.44-.64.27l.42,5.79c.03.35-.24.66-.59.69-.02,0-.03,0-.05,0h-20.2c-.13,0-.24-.11-.24-.24v-100.51c0-.33.17-.5.5-.5h20.01c.33.01.5.18.5.51v30.74c-.01.47.16.55.51.24,5.69-5.06,13.01-7.25,21.96-6.58,15.06,1.13,24.55,12.15,27.37,26.28,1.45,7.31,1.48,15,.09,23.05-2.53,14.6-10.57,27.01-26.6,29.01ZM600.19,375.67c-1.48-7.33-6.2-12.87-14.23-12.62-14.76.47-15.77,19.19-13.76,30.24,1.59,8.75,8.26,14.54,17.45,12.38,11.88-2.78,12.42-20.73,10.54-30Z"/><rect class="ultra-mobile-1" x="634.01" y="320.76" width="21.26" height="19.24" rx=".38" ry=".38"/><rect class="ultra-mobile-1" x="669.77" y="320.76" width="21.26" height="101.24" rx=".38" ry=".38"/><path class="ultra-mobile-1" d="M505.18,424h-8.36c-25.72-2.8-37.42-24.79-32.67-48.57,3.83-19.12,19.18-30.1,38.36-30.04,25.73.08,39.63,19.72,37.24,44.38-.51,5.38-2.06,10.44-4.63,15.18-5.95,10.98-15.93,17.33-29.94,19.05ZM486.69,373.93c-2.98,9.72-2.68,28.76,10.21,31.87,20.03,4.83,24.28-18.49,19.82-32.13-5.01-15.31-25.28-15.18-30.03.26Z"/><path class="ultra-mobile-1" d="M743.55,424h-8.61c-24.7-2.69-35.79-23.02-32.87-45.97,2.69-21.14,19.51-34.02,40.9-32.46,24.19,1.77,33.92,23.41,32.74,44.96-.02.31-.18.47-.49.47h-50.69c-.43,0-.61.21-.53.64,1.79,9.79,7.06,14.78,15.81,14.98,5.76.13,10.63-2.29,13.37-7.38.18-.33.46-.49.84-.46l20.23,1.37c.36.02.63.33.61.69,0,.07-.02.13-.05.2-5.39,13.72-15.81,21.37-31.26,22.96ZM724.26,374c-.15.5.04.75.56.75h27.76c.38,0,.68-.3.68-.68,0-.04,0-.08-.01-.12-.95-5.13-3.62-8.66-8.03-10.58-5.21-2.27-13.02-1.18-17.04,3.31-1.72,1.93-3.03,4.37-3.92,7.32Z"/><path class="ultra-mobile-1" d="M366.02,355.77c0,.71.19.76.56.15,5.21-8.41,13.85-11.1,23.32-9.83,7.3.97,12.57,4.8,15.82,11.48.21.43.44.44.7.05,4.59-6.95,11.11-10.79,19.55-11.53,7.1-.62,15.16,1.47,20.37,6.53,5.28,5.12,6.51,11.37,6.48,18.81-.07,17.41-.08,34.16-.03,50.25,0,.21-.1.32-.31.32h-20.42c-.37,0-.55-.19-.55-.56.01-13.21.01-27.3,0-42.25,0-8.43-3.63-15.19-12.98-13.72-7.16,1.13-8.78,8.02-8.77,14.29.02,14.75.02,28.6,0,41.55,0,.38-.31.69-.7.69h-20.25c-.37,0-.55-.19-.55-.56.03-13.13.02-27.65-.02-43.58-.02-8.05-5.38-14.33-13.56-12.29-7.25,1.81-8.45,8.21-8.54,14.73-.2,14.49-.22,28.27-.06,41.36,0,.18-.14.33-.33.34,0,0,0,0-.01,0h-20.47c-.28-.01-.5-.23-.5-.5v-73.75c0-.14.11-.25.24-.25h20.51c.28,0,.5.22.5.5v7.77Z"/><rect class="ultra-mobile-1" x="634.01" y="347.5" width="21.28" height="74.5" rx=".41" ry=".41"/></svg>